<svg width="49" height="49" viewBox="0 0 49 49" fill="none" xmlns="http://www.w3.org/2000/svg">
<rect x="0.110352" y="0.2724" width="48" height="48" fill="#FAC230"/>
<path d="M12.3447 40.0891L3.74316 40.136C3.58691 40.136 3.50879 40.0579 3.50879 39.9016L3.60254 6.92505C3.60254 6.80005 3.66504 6.73755 3.79004 6.73755L12.7666 6.69067C14.5479 6.6438 16.1572 7.05005 17.5947 7.90942C19.0479 8.7688 20.2041 9.93286 21.0635 11.4016C21.9385 12.8547 22.376 14.4641 22.376 16.2297V30.011C22.376 31.8547 21.9307 33.5422 21.04 35.0735C20.1338 36.5891 18.9307 37.8 17.4307 38.7063C15.9307 39.5969 14.2354 40.0579 12.3447 40.0891ZM12.7666 12.4329L9.41504 12.4797L9.36816 34.2297H12.3447C13.5322 34.2297 14.5322 33.8157 15.3447 32.9875C16.1572 32.1594 16.5635 31.1672 16.5635 30.011V16.1829C16.5635 15.1672 16.1885 14.2844 15.4385 13.5344C14.6885 12.7688 13.7979 12.4016 12.7666 12.4329ZM34.9385 40.136H26.3369C26.2119 40.136 26.1494 40.0579 26.1494 39.9016L26.2432 6.92505C26.2432 6.80005 26.3057 6.73755 26.4307 6.73755H35.665C37.4619 6.73755 39.0947 7.17505 40.5635 8.05005C42.001 8.92505 43.1338 10.0891 43.9619 11.5422C44.79 12.9797 45.2041 14.5422 45.2041 16.2297C45.2041 17.6047 44.8916 18.886 44.2666 20.0735C43.6416 21.261 42.8994 22.2219 42.04 22.9563C42.9619 23.8782 43.6807 24.9485 44.1963 26.1672C44.7119 27.386 44.9697 28.6672 44.9697 30.011C44.9697 31.8704 44.5244 33.5657 43.6338 35.0969C42.7275 36.6282 41.5166 37.8547 40.001 38.7766C38.4854 39.6829 36.7979 40.136 34.9385 40.136ZM35.665 12.4329H32.0088V19.9797H35.665C36.7744 19.9797 37.6729 19.5891 38.3604 18.8079C39.0479 18.011 39.3916 17.1516 39.3916 16.2297C39.3916 15.2141 39.0244 14.3313 38.29 13.5813C37.5557 12.8157 36.6807 12.4329 35.665 12.4329ZM34.9385 25.7922H32.0088L31.9619 34.2766H34.9385C36.0947 34.2766 37.0869 33.8547 37.915 33.011C38.7432 32.1672 39.1572 31.1672 39.1572 30.011C39.1572 28.8547 38.7432 27.8625 37.915 27.0344C37.0869 26.2063 36.0947 25.7922 34.9385 25.7922Z" fill="black"/>
</svg>
